<svg width="192" height="192" viewBox="0 0 192 192" fill="none" xmlns="http://www.w3.org/2000/svg">
<g clip-path="url(#clip0_1664_9001)">
<rect width="192" height="192" rx="96" fill="#676EED"/>
<path d="M43.4289 145V143.6L46.2289 142.62C49.4022 141.593 50.9889 138.933 50.9889 134.64V62.96C50.9889 61.0933 50.7556 59.6 50.2889 58.48C49.9156 57.36 48.8422 56.4267 47.0689 55.68L43.4289 54V52.6H70.4489L96.3489 120.36L120.709 52.6H148.289V54L146.049 54.84C144.276 55.4933 143.062 56.4267 142.409 57.64C141.756 58.76 141.429 60.2533 141.429 62.12V135.34C141.429 137.207 141.662 138.653 142.129 139.68C142.596 140.707 143.716 141.593 145.489 142.34L148.289 143.6V145H113.429V143.6L116.369 142.34C118.142 141.593 119.262 140.707 119.729 139.68C120.196 138.653 120.429 137.207 120.429 135.34V103.84L120.709 63.8L91.4489 145H84.4489L53.9289 64.78L54.3489 99.64V134.92C54.3489 136.973 54.6289 138.653 55.1889 139.96C55.8422 141.173 57.0556 142.06 58.8289 142.62L61.9089 143.6V145H43.4289Z" fill="#F8F1E3"/>
</g>
<defs>
<clipPath id="clip0_1664_9001">
<rect width="192" height="192" rx="96" fill="white"/>
</clipPath>
</defs>
</svg>
