<svg width="400" height="400" viewBox="0 0 400 400" fill="none" xmlns="http://www.w3.org/2000/svg">
<g filter="url(#filter0_b_1780_2262)">
<path d="M362.097 79.0323L291.129 150L250.806 172.581L254.839 182.258L291.129 170.968H400V229.032H291.129L254.839 217.742L250.806 227.419L291.129 250L362.097 320.968L320.968 362.097L250 291.129L227.419 250.806L217.742 254.839L229.032 291.129V400H170.968V291.129L182.258 254.839L172.581 250.806L150 291.129L79.0323 362.097L37.9032 320.968L108.871 250L149.194 227.419L145.161 217.742L108.871 229.032H0V170.968H108.871L145.161 182.258L149.194 172.581L108.871 150L37.9032 79.0323L79.0323 37.9033L150 108.871L172.581 149.194L182.258 145.161L170.968 108.871V0H229.032V108.871L217.742 145.161L227.419 149.194L250 108.871L320.968 37.9033L362.097 79.0323Z" fill="#31313A"/>
</g>
<defs>
<filter id="filter0_b_1780_2262" x="-4" y="-4" width="408" height="408" filterUnits="userSpaceOnUse" color-interpolation-filters="sRGB">
<feFlood flood-opacity="0" result="BackgroundImageFix"/>
<feGaussianBlur in="BackgroundImageFix" stdDeviation="2"/>
<feComposite in2="SourceAlpha" operator="in" result="effect1_backgroundBlur_1780_2262"/>
<feBlend mode="normal" in="SourceGraphic" in2="effect1_backgroundBlur_1780_2262" result="shape"/>
</filter>
</defs>
</svg>
